<svg width="307" height="165" viewBox="0 0 307 165" fill="none" xmlns="http://www.w3.org/2000/svg">
<g opacity="0.8">
<g opacity="0.2" clip-path="url(#clip0)">
<path d="M45.9095 128.11L48.1144 129.86C48.9573 130.528 49.1803 131.691 48.7029 132.61L49.9401 133.592C50.9462 131.987 50.6054 129.84 49.0864 128.635L46.8814 126.885C45.3624 125.68 43.1944 125.836 41.8576 127.179L43.0948 128.16C43.8858 127.491 45.0691 127.443 45.9095 128.11Z" fill="white"/>
<path d="M28.3608 137.034L39.6454 145.988C39.817 145.661 40.0214 145.348 40.2585 145.049C42.321 142.45 46.1173 142.012 48.7167 144.075C49.2337 144.485 49.6674 144.965 50.0104 145.489L53.1478 141.534C52.8695 141.669 52.5759 141.787 52.2696 141.891C51.0863 142.286 49.745 142.412 48.2884 142.27C46.0168 142.049 43.6342 141.192 41.4092 139.81L41.242 140.021L40.791 140.589C40.0543 141.518 38.701 141.674 37.7725 140.937L37.4809 140.705C36.5523 139.969 36.3964 138.615 37.1332 137.687L37.5841 137.118L37.7513 136.908C35.9039 135.055 34.5239 132.93 33.7918 130.768C33.3202 129.38 33.14 128.047 33.2552 126.805C33.2847 126.481 33.3337 126.173 33.4033 125.869L27.8788 132.831C26.8456 134.124 27.0647 136.006 28.3608 137.034Z" fill="white"/>
<path d="M34.974 130.365C35.8445 132.936 37.7254 135.466 40.2685 137.484C42.8116 139.502 45.7013 140.761 48.4049 141.021C50.8363 141.258 52.8287 140.659 54.0737 139.331C54.0765 138.447 53.688 137.568 52.9408 136.975L49.4716 134.222L48.2466 133.25L42.5773 128.752L41.3523 127.78L37.8856 125.03C37.1384 124.437 36.194 124.258 35.3337 124.462C34.3234 125.972 34.1911 128.051 34.974 130.365Z" fill="white"/>
<path d="M38.1108 138.462C37.8017 138.852 37.8689 139.416 38.2561 139.724L38.5476 139.955C38.9371 140.264 39.5015 140.197 39.8086 139.81L40.2596 139.241L38.5618 137.894L38.1108 138.462L38.1108 138.462Z" fill="white"/>
<path d="M47.8114 148.255C47.6886 147.595 47.3344 146.975 46.7684 146.525C45.5189 145.534 43.6955 145.744 42.7041 146.994C42.4592 147.302 42.2852 147.647 42.1865 148.008C42.1471 148.149 42.1193 148.294 42.1004 148.439C42.081 148.599 42.0753 148.762 42.0827 148.924C42.0865 148.995 42.0921 149.063 42.1002 149.133L42.725 149.629C43.5898 150.315 44.662 150.559 45.6689 150.392C46.4772 150.259 47.2439 149.861 47.8328 149.214C47.8533 149.083 47.8625 148.951 47.8629 148.819C47.8656 148.63 47.8483 148.44 47.8114 148.255Z" fill="white"/>
<path d="M46.8059 154.524L46.7623 154.126L46.7354 153.873C46.7298 153.825 46.7223 153.779 46.7124 153.731C47.6132 153.416 48.4383 152.849 49.074 152.048C50.2617 150.551 50.4976 148.598 49.8642 146.926C49.8104 146.787 49.7547 146.651 49.6901 146.516C49.6286 146.388 49.5631 146.264 49.4908 146.138C49.1721 145.594 48.7501 145.1 48.2282 144.686C45.9645 142.889 42.6646 143.27 40.8685 145.533C40.6314 145.832 40.4299 146.151 40.2677 146.482C40.2081 146.602 40.1534 146.726 40.1031 146.85C40.0533 146.978 40.0059 147.109 39.9654 147.24C39.3483 149.246 39.9743 151.511 41.7138 152.891C42.515 153.527 43.4474 153.891 44.3963 153.993C44.3965 154.034 44.3991 154.075 44.4017 154.118L44.4311 154.392L44.4723 154.788L44.6763 156.695C44.7094 157.02 44.8751 157.3 45.1127 157.488C45.3455 157.673 45.6482 157.769 45.967 157.735C46.6115 157.667 47.079 157.088 47.0095 156.446L46.8059 154.524ZM42.6862 151.671C41.7479 150.926 41.2701 149.812 41.2974 148.696C41.2991 148.634 41.3027 148.569 41.3063 148.504C41.3105 148.443 41.319 148.382 41.3256 148.323C41.3309 148.292 41.3342 148.262 41.3394 148.231C41.3575 148.117 41.38 148.003 41.4094 147.891C41.443 147.758 41.4855 147.624 41.5347 147.491C41.6662 147.144 41.851 146.816 42.094 146.51C43.3536 144.922 45.6691 144.655 47.2567 145.915C47.7982 146.345 48.1868 146.896 48.4124 147.503C48.4696 147.652 48.5137 147.803 48.5495 147.959C48.5719 148.056 48.5923 148.156 48.6059 148.255C48.6149 148.314 48.622 148.376 48.6291 148.437C48.6306 148.45 48.6326 148.468 48.6342 148.481C48.6567 148.734 48.6504 148.989 48.6216 149.242C48.5426 149.89 48.2888 150.527 47.8534 151.075C46.5894 152.663 44.2738 152.93 42.6862 151.671Z" fill="white"/>
</g>
<g opacity="0.2" clip-path="url(#clip1)">
<path d="M275.181 15.987L277.361 14.2062C278.194 13.5256 279.378 13.5559 280.174 14.2184L281.397 13.2192C280.044 11.8937 277.874 11.7685 276.372 12.9952L274.192 14.776C272.69 16.0028 272.38 18.1542 273.407 19.7468L274.63 18.7476C274.144 17.8318 274.351 16.6657 275.181 15.987Z" fill="white"/>
<path d="M280.155 35.036L291.31 25.9224C291.028 25.6849 290.765 25.4185 290.524 25.123C288.425 22.5533 288.808 18.7511 291.378 16.6518C291.889 16.2343 292.45 15.913 293.035 15.6896L289.841 11.7805C289.913 12.0812 289.966 12.3933 290.003 12.7148C290.136 13.955 289.972 15.2922 289.523 16.685C288.822 18.857 287.476 21.0019 285.651 22.8807L285.821 23.089L286.28 23.6509C287.03 24.5688 286.894 25.9242 285.976 26.6741L285.688 26.9096C284.77 27.6595 283.414 27.5229 282.664 26.605L282.205 26.0431L282.035 25.8348C279.831 27.2441 277.46 28.1388 275.192 28.3926C273.735 28.557 272.394 28.4487 271.206 28.071C270.895 27.9731 270.605 27.8594 270.322 27.7265L275.946 34.6098C276.987 35.895 278.873 36.0827 280.155 35.036Z" fill="white"/>
<path d="M275.05 27.1516C277.748 26.85 280.621 25.5525 283.135 23.4986C285.649 21.4448 287.496 18.8903 288.328 16.3047C289.078 13.9797 288.918 11.9054 287.886 10.4057C287.023 10.2143 286.081 10.4062 285.343 11.0096L281.913 13.8114L280.702 14.8007L275.098 19.3793L273.887 20.3687L270.46 23.1684C269.721 23.7719 269.345 24.6565 269.36 25.5404C270.62 26.8497 272.623 27.4227 275.05 27.1516Z" fill="white"/>
<path d="M283.631 25.8155C283.945 26.2006 284.511 26.2554 284.894 25.9428L285.182 25.7073C285.567 25.3927 285.622 24.827 285.309 24.4443L284.85 23.8824L283.172 25.2536L283.631 25.8155L283.631 25.8155Z" fill="white"/>
<path d="M295.268 18.4286C294.597 18.4076 293.915 18.6212 293.356 19.0783C292.121 20.0874 291.937 21.9136 292.946 23.1489C293.195 23.454 293.495 23.6976 293.826 23.871C293.955 23.9396 294.092 23.9978 294.229 24.0472C294.381 24.1003 294.539 24.1407 294.699 24.1679C294.769 24.1794 294.837 24.1885 294.907 24.1955L295.525 23.691C296.38 22.9925 296.847 21.9971 296.898 20.9777C296.941 20.1596 296.716 19.3257 296.21 18.6123C296.086 18.5643 295.959 18.527 295.83 18.4985C295.646 18.4555 295.457 18.432 295.268 18.4286Z" fill="white"/>
<path d="M301.178 20.7488L300.78 20.7065L300.527 20.6788C300.479 20.6739 300.432 20.6714 300.383 20.671C300.268 19.7235 299.89 18.7965 299.243 18.0045C298.034 16.5246 296.177 15.8774 294.408 16.1393C294.261 16.1623 294.116 16.1877 293.97 16.2219C293.831 16.2546 293.697 16.2921 293.559 16.336C292.959 16.5312 292.386 16.8379 291.87 17.2594C289.632 19.0876 289.299 22.3926 291.127 24.6305C291.369 24.9259 291.638 25.1909 291.926 25.4199C292.031 25.5038 292.14 25.5838 292.25 25.6593C292.365 25.7353 292.482 25.8094 292.602 25.877C294.43 26.908 296.776 26.7799 298.496 25.375C299.288 24.728 299.843 23.8949 300.145 22.9896C300.185 22.998 300.226 23.0044 300.268 23.0108L300.543 23.0408L300.938 23.0851L302.844 23.2927C303.169 23.3299 303.478 23.2276 303.713 23.0356C303.943 22.8477 304.101 22.5725 304.136 22.2537C304.207 21.6096 303.741 21.0292 303.099 20.9601L301.178 20.7488ZM297.511 24.1645C296.583 24.9224 295.393 25.1514 294.309 24.8866C294.248 24.8715 294.185 24.8541 294.123 24.8367C294.064 24.8197 294.006 24.7983 293.951 24.7794C293.921 24.7675 293.893 24.758 293.863 24.7461C293.756 24.7042 293.649 24.6579 293.546 24.6052C293.423 24.544 293.301 24.4739 293.182 24.3975C292.871 24.195 292.59 23.9444 292.343 23.6416C291.061 22.0722 291.294 19.7531 292.864 18.4709C293.399 18.0336 294.021 17.7718 294.661 17.6807C294.819 17.6566 294.976 17.6457 295.136 17.6441C295.236 17.6431 295.338 17.6445 295.438 17.6522C295.497 17.6561 295.559 17.6622 295.621 17.6684C295.634 17.6698 295.651 17.6716 295.665 17.6729C295.917 17.705 296.164 17.7654 296.405 17.8475C297.021 18.063 297.589 18.4469 298.032 18.9894C299.314 20.5633 299.08 22.8824 297.511 24.1645Z" fill="white"/>
</g>
<g opacity="0.2" clip-path="url(#clip2)">
<path d="M257.166 137.16L259.325 135.354C260.15 134.663 261.334 134.68 262.138 135.333L263.349 134.319C261.98 133.01 259.809 132.91 258.321 134.154L256.163 135.961C254.676 137.205 254.391 139.36 255.436 140.941L256.648 139.927C256.151 139.017 256.344 137.848 257.166 137.16Z" fill="white"/>
<path d="M262.364 156.149L273.412 146.904C273.126 146.67 272.861 146.407 272.616 146.114C270.486 143.569 270.824 139.763 273.369 137.634C273.875 137.21 274.433 136.882 275.015 136.652L271.776 132.781C271.851 133.081 271.908 133.392 271.948 133.713C272.096 134.952 271.948 136.291 271.515 137.689C270.84 139.869 269.52 142.029 267.717 143.93L267.89 144.136L268.355 144.692C269.116 145.601 268.995 146.958 268.086 147.719L267.801 147.958C266.892 148.718 265.535 148.598 264.774 147.689L264.309 147.133L264.136 146.926C261.948 148.361 259.588 149.284 257.323 149.565C255.868 149.746 254.527 149.654 253.334 149.29C253.022 149.196 252.73 149.086 252.446 148.956L258.15 155.772C259.207 157.045 261.095 157.211 262.364 156.149Z" fill="white"/>
<path d="M257.167 148.325C259.861 147.992 262.719 146.661 265.208 144.577C267.698 142.494 269.514 139.918 270.315 137.322C271.038 134.989 270.853 132.917 269.804 131.429C268.939 131.248 268 131.451 267.268 132.063L263.872 134.905L262.673 135.909L257.123 140.553L255.923 141.557L252.529 144.397C251.798 145.009 251.433 145.898 251.458 146.782C252.733 148.076 254.743 148.625 257.167 148.325Z" fill="white"/>
<path d="M265.731 146.888C266.05 147.269 266.617 147.318 266.996 147L267.281 146.762C267.662 146.442 267.711 145.876 267.393 145.497L266.928 144.941L265.266 146.332L265.731 146.888L265.731 146.888Z" fill="white"/>
<path d="M277.281 139.364C276.609 139.351 275.93 139.573 275.376 140.036C274.153 141.06 273.99 142.888 275.014 144.112C275.267 144.414 275.57 144.654 275.903 144.823C276.033 144.89 276.17 144.947 276.308 144.995C276.461 145.046 276.619 145.085 276.779 145.11C276.849 145.121 276.917 145.129 276.988 145.135L277.599 144.623C278.446 143.915 278.901 142.914 278.941 141.894C278.974 141.075 278.739 140.244 278.225 139.537C278.1 139.49 277.972 139.454 277.843 139.428C277.658 139.387 277.469 139.365 277.281 139.364Z" fill="white"/>
<path d="M283.217 141.614L282.819 141.577L282.566 141.552C282.517 141.548 282.471 141.546 282.422 141.546C282.295 140.6 281.906 139.678 281.25 138.893C280.024 137.428 278.159 136.802 276.393 137.085C276.247 137.11 276.102 137.137 275.957 137.173C275.818 137.207 275.684 137.246 275.547 137.292C274.949 137.494 274.38 137.808 273.869 138.235C271.653 140.09 271.359 143.398 273.213 145.615C273.458 145.907 273.73 146.169 274.021 146.395C274.127 146.477 274.237 146.556 274.349 146.63C274.464 146.705 274.582 146.777 274.703 146.844C276.542 147.853 278.887 147.697 280.59 146.272C281.374 145.616 281.92 144.776 282.211 143.867C282.251 143.875 282.292 143.881 282.334 143.887L282.609 143.914L283.005 143.953L284.914 144.138C285.239 144.172 285.546 144.066 285.779 143.871C286.007 143.681 286.162 143.404 286.193 143.084C286.257 142.439 285.784 141.865 285.141 141.803L283.217 141.614ZM279.591 145.073C278.672 145.842 277.485 146.085 276.398 145.833C276.337 145.819 276.274 145.802 276.211 145.785C276.152 145.769 276.094 145.748 276.038 145.73C276.008 145.719 275.98 145.709 275.95 145.698C275.843 145.657 275.736 145.612 275.631 145.561C275.508 145.501 275.385 145.432 275.265 145.357C274.952 145.159 274.668 144.911 274.417 144.611C273.116 143.057 273.323 140.736 274.877 139.435C275.407 138.991 276.026 138.722 276.665 138.624C276.823 138.598 276.979 138.585 277.139 138.581C277.24 138.579 277.342 138.579 277.441 138.586C277.501 138.589 277.562 138.594 277.624 138.6C277.637 138.601 277.655 138.603 277.668 138.604C277.921 138.633 278.169 138.691 278.41 138.77C279.029 138.978 279.602 139.355 280.051 139.892C281.351 141.451 281.145 143.773 279.591 145.073Z" fill="white"/>
</g>
<g opacity="0.2" clip-path="url(#clip3)">
<path d="M194.241 86.8923L195.217 89.5325C195.59 90.5417 195.176 91.6514 194.291 92.1885L194.839 93.67C196.532 92.8208 197.356 90.8093 196.684 88.9904L195.708 86.3502C195.036 84.5314 193.102 83.5389 191.262 83.9921L191.81 85.4735C192.834 85.3119 193.869 85.886 194.241 86.8923Z" fill="white"/>
<path d="M174.61 85.4046L179.603 98.9167C179.92 98.7264 180.257 98.5651 180.615 98.4329C183.728 97.2827 187.199 98.8806 188.349 101.993C188.578 102.612 188.699 103.247 188.72 103.873L193.455 102.123C193.147 102.094 192.835 102.042 192.519 101.973C191.303 101.695 190.092 101.106 188.92 100.228C187.094 98.8593 185.503 96.89 184.319 94.5533L184.067 94.6465L183.386 94.8981C182.275 95.3089 181.037 94.7393 180.626 93.6275L180.497 93.2783C180.086 92.1665 180.656 90.9291 181.768 90.5182L182.448 90.2667L182.701 90.1735C182.084 87.6305 182.009 85.0978 182.506 82.8702C182.824 81.4391 183.362 80.2066 184.106 79.205C184.299 78.9434 184.501 78.7054 184.719 78.4817L176.381 81.5626C174.827 82.1302 174.037 83.8527 174.61 85.4046Z" fill="white"/>
<path d="M183.725 83.1398C183.134 85.7889 183.427 88.9281 184.552 91.9732C185.678 95.0182 187.493 97.5948 189.668 99.2217C191.623 100.686 193.637 101.209 195.391 100.721C195.852 99.9673 195.977 99.0143 195.646 98.1196L194.111 93.9656L193.569 92.4988L191.06 85.7105L190.518 84.2437L188.984 80.0927C188.654 79.198 187.939 78.5551 187.098 78.2823C185.451 79.0479 184.258 80.7557 183.725 83.1398Z" fill="white"/>
<path d="M182.2 91.6887C181.734 91.8611 181.498 92.3782 181.669 92.8418L181.798 93.1908C181.971 93.6573 182.488 93.8929 182.952 93.7216L183.632 93.4701L182.881 91.4372L182.2 91.6887L182.2 91.6887Z" fill="white"/>
<path d="M185.404 105.095C185.642 104.467 185.662 103.753 185.411 103.075C184.858 101.579 183.191 100.812 181.695 101.365C181.325 101.501 180.997 101.706 180.726 101.963C180.619 102.062 180.52 102.172 180.428 102.286C180.329 102.413 180.239 102.549 180.161 102.691C180.128 102.754 180.097 102.815 180.068 102.88L180.344 103.628C180.727 104.663 181.516 105.428 182.463 105.808C183.223 106.114 184.085 106.173 184.924 105.926C185.01 105.824 185.087 105.716 185.155 105.604C185.256 105.443 185.34 105.272 185.404 105.095Z" fill="white"/>
<path d="M181.289 109.93L181.458 109.567L181.567 109.337C181.587 109.293 181.605 109.25 181.621 109.204C182.554 109.402 183.554 109.346 184.513 108.992C186.306 108.33 187.521 106.783 187.849 105.025C187.875 104.879 187.898 104.734 187.913 104.585C187.927 104.443 187.935 104.303 187.938 104.159C187.949 103.528 187.845 102.886 187.614 102.261C186.612 99.5507 183.595 98.1617 180.885 99.1634C180.527 99.2956 180.189 99.4638 179.879 99.6618C179.765 99.7338 179.654 99.8116 179.546 99.8912C179.437 99.9749 179.329 100.061 179.226 100.153C177.657 101.546 177.016 103.807 177.786 105.89C178.14 106.849 178.748 107.645 179.505 108.225C179.485 108.26 179.465 108.297 179.446 108.334L179.328 108.584L179.158 108.944L178.342 110.679C178.201 110.975 178.197 111.299 178.303 111.584C178.406 111.862 178.614 112.102 178.905 112.238C179.49 112.515 180.191 112.263 180.465 111.678L181.289 109.93ZM179.25 105.352C178.835 104.228 179.005 103.029 179.608 102.089C179.642 102.036 179.679 101.983 179.716 101.929C179.751 101.879 179.79 101.832 179.826 101.785C179.847 101.761 179.865 101.737 179.886 101.713C179.961 101.625 180.039 101.54 180.122 101.459C180.22 101.363 180.326 101.27 180.437 101.183C180.73 100.954 181.058 100.77 181.425 100.634C183.326 99.9317 185.443 100.906 186.145 102.807C186.385 103.456 186.43 104.129 186.308 104.764C186.28 104.922 186.239 105.073 186.189 105.225C186.157 105.32 186.123 105.416 186.083 105.508C186.06 105.563 186.034 105.619 186.008 105.675C186.003 105.687 185.995 105.704 185.99 105.716C185.877 105.944 185.74 106.158 185.584 106.359C185.18 106.872 184.632 107.284 183.975 107.527C182.07 108.228 179.953 107.253 179.25 105.352Z" fill="white"/>
</g>
<g opacity="0.2" clip-path="url(#clip4)">
<path d="M124.241 32.8923L125.217 35.5325C125.59 36.5417 125.176 37.6514 124.291 38.1885L124.839 39.67C126.532 38.8208 127.356 36.8093 126.684 34.9904L125.708 32.3502C125.036 30.5314 123.102 29.5389 121.262 29.9921L121.81 31.4735C122.834 31.3119 123.869 31.886 124.241 32.8923Z" fill="white"/>
<path d="M104.61 31.4046L109.603 44.9167C109.92 44.7264 110.257 44.5651 110.615 44.4329C113.728 43.2827 117.199 44.8806 118.349 47.9932C118.578 48.6122 118.699 49.2475 118.72 49.8732L123.455 48.1235C123.147 48.0938 122.835 48.0425 122.519 47.9726C121.303 47.6951 120.092 47.1058 118.92 46.2283C117.094 44.8593 115.503 42.89 114.319 40.5533L114.067 40.6465L113.386 40.8981C112.275 41.3089 111.037 40.7393 110.626 39.6275L110.497 39.2783C110.086 38.1665 110.656 36.9291 111.768 36.5182L112.448 36.2667L112.701 36.1735C112.084 33.6305 112.009 31.0978 112.506 28.8702C112.824 27.4391 113.362 26.2066 114.106 25.205C114.299 24.9434 114.501 24.7054 114.719 24.4817L106.381 27.5626C104.827 28.1302 104.037 29.8527 104.61 31.4046Z" fill="white"/>
<path d="M113.725 29.1398C113.134 31.7889 113.427 34.9281 114.552 37.9732C115.678 41.0182 117.493 43.5948 119.668 45.2217C121.623 46.6864 123.637 47.2093 125.391 46.7213C125.852 45.9673 125.977 45.0143 125.646 44.1196L124.111 39.9656L123.569 38.4988L121.06 31.7105L120.518 30.2437L118.984 26.0927C118.654 25.198 117.939 24.5551 117.098 24.2823C115.451 25.0479 114.258 26.7557 113.725 29.1398Z" fill="white"/>
<path d="M112.2 37.6887C111.734 37.8611 111.498 38.3782 111.669 38.8418L111.798 39.1908C111.971 39.6573 112.488 39.8929 112.952 39.7216L113.632 39.4701L112.881 37.4372L112.2 37.6887L112.2 37.6887Z" fill="white"/>
<path d="M115.404 51.0952C115.642 50.4671 115.662 49.7531 115.411 49.0754C114.858 47.5793 113.191 46.8117 111.695 47.3646C111.325 47.5012 110.997 47.7057 110.726 47.9628C110.619 48.0623 110.52 48.1723 110.428 48.2861C110.329 48.413 110.239 48.5495 110.161 48.6915C110.128 48.7539 110.097 48.8153 110.068 48.8796L110.344 49.6276C110.727 50.6632 111.516 51.4283 112.463 51.8084C113.223 52.1145 114.085 52.1727 114.924 51.9261C115.01 51.8243 115.087 51.716 115.155 51.6039C115.256 51.4434 115.34 51.2725 115.404 51.0952Z" fill="white"/>
<path d="M111.289 55.93L111.458 55.5673L111.567 55.3373C111.587 55.2931 111.605 55.2499 111.621 55.2039C112.554 55.4024 113.554 55.3464 114.513 54.9919C116.306 54.3295 117.521 52.7834 117.849 51.0253C117.875 50.879 117.898 50.7338 117.913 50.5849C117.927 50.443 117.935 50.3032 117.938 50.1586C117.949 49.5279 117.845 48.8861 117.614 48.2613C116.612 45.5507 113.595 44.1617 110.885 45.1634C110.527 45.2956 110.189 45.4638 109.879 45.6618C109.765 45.7338 109.654 45.8116 109.546 45.8912C109.437 45.9749 109.329 46.0615 109.226 46.1529C107.657 47.5462 107.016 49.8072 107.786 51.89C108.14 52.8493 108.748 53.6451 109.505 54.2252C109.485 54.2595 109.465 54.2968 109.446 54.334L109.328 54.5842L109.158 54.9439L108.342 56.6791C108.201 56.9746 108.197 57.2992 108.303 57.5838C108.406 57.8625 108.614 58.1021 108.905 58.2382C109.49 58.5152 110.191 58.2631 110.465 57.6784L111.289 55.93ZM109.25 51.352C108.835 50.2284 109.005 49.0286 109.608 48.089C109.642 48.0364 109.679 47.9828 109.716 47.9291C109.751 47.8795 109.79 47.8317 109.826 47.7851C109.847 47.7606 109.865 47.7373 109.886 47.7129C109.961 47.6254 110.039 47.5397 110.122 47.4589C110.22 47.3627 110.326 47.2702 110.437 47.1826C110.73 46.9544 111.058 46.7697 111.425 46.6342C113.326 45.9317 115.443 46.9064 116.145 48.8074C116.385 49.4557 116.43 50.1291 116.308 50.7643C116.28 50.9215 116.239 51.0733 116.189 51.2253C116.157 51.3203 116.123 51.4164 116.083 51.5078C116.06 51.5629 116.034 51.6192 116.008 51.6754C116.003 51.6875 115.995 51.7035 115.99 51.7156C115.877 51.9438 115.74 52.158 115.584 52.359C115.18 52.8717 114.632 53.2842 113.975 53.527C112.07 54.2276 109.953 53.2529 109.25 51.352Z" fill="white"/>
</g>
<g opacity="0.2" clip-path="url(#clip5)">
<path d="M23.5375 9.47535L25.8974 11.0094C26.7995 11.5958 27.131 12.7327 26.7422 13.6923L28.0664 14.5531C28.9169 12.8603 28.3754 10.7552 26.7497 9.69836L24.3897 8.16428C22.764 7.10746 20.6203 7.46715 19.4159 8.92978L20.7401 9.79057C21.4645 9.04916 22.6381 8.8907 23.5375 9.47535Z" fill="white"/>
<path d="M6.90728 20.0126L18.9849 27.8637C19.125 27.522 19.299 27.1913 19.5069 26.8714C21.3154 24.0893 25.0537 23.2964 27.8358 25.1049C28.3891 25.4646 28.866 25.9015 29.2568 26.3905L32.008 22.1584C31.7435 22.3185 31.4624 22.464 31.1673 22.5967C30.0263 23.1009 28.7029 23.3522 27.2394 23.3483C24.957 23.3418 22.5044 22.7136 20.1591 21.5471L20.0125 21.7726L19.617 22.381C18.971 23.3748 17.6384 23.6574 16.6446 23.0114L16.3325 22.8085C15.3387 22.1625 15.0561 20.8299 15.7021 19.8361L16.0976 19.2277L16.2442 19.0022C14.2305 17.3314 12.6565 15.3458 11.7241 13.2626C11.1239 11.925 10.819 10.6152 10.8167 9.36774C10.8155 9.04246 10.8353 8.73081 10.876 8.42152L6.03172 15.8737C5.12477 17.2574 5.52016 19.1109 6.90728 20.0126Z" fill="white"/>
<path d="M12.8632 12.7499C13.9719 15.2276 16.0827 17.5695 18.8045 19.3388C21.5263 21.1082 24.5218 22.0892 27.2379 22.0942C29.6807 22.1006 31.6078 21.3166 32.7223 19.8775C32.6418 18.9971 32.1723 18.1585 31.3726 17.6386L27.6596 15.225L26.3486 14.3728L20.2809 10.4285L18.9698 9.57619L15.2595 7.16427C14.4597 6.64439 13.5027 6.55572 12.6654 6.83955C11.8018 8.4379 11.8658 10.5199 12.8632 12.7499Z" fill="white"/>
<path d="M16.7484 20.5162C16.4774 20.9331 16.5974 21.4886 17.0117 21.758L17.3237 21.9608C17.7407 22.2318 18.2962 22.1117 18.5655 21.6974L18.9609 21.0891L17.1438 19.9078L16.7483 20.5162L16.7484 20.5162Z" fill="white"/>
<path d="M27.3281 29.3519C27.1436 28.7061 26.7327 28.1218 26.1269 27.7281C24.7896 26.8587 22.994 27.2396 22.1247 28.5769C21.91 28.9072 21.7693 29.2671 21.705 29.6357C21.6789 29.7791 21.665 29.9268 21.6598 30.0725C21.6555 30.2339 21.6652 30.3969 21.6879 30.5571C21.6983 30.6272 21.7103 30.6948 21.725 30.764L22.3937 31.1987C23.3193 31.8004 24.4096 31.9421 25.3963 31.6809C26.1885 31.4722 26.9144 31.004 27.4398 30.3048C27.4477 30.172 27.4445 30.0393 27.4325 29.9085C27.4174 29.7195 27.3822 29.5326 27.3281 29.3519Z" fill="white"/>
<path d="M26.9174 35.6875L26.8365 35.2955L26.7859 35.0462C26.7759 34.9986 26.7641 34.9536 26.7496 34.907C27.6168 34.5083 28.3849 33.8662 28.9423 33.0087C29.9838 31.4065 30.0347 29.4403 29.2466 27.8351C29.18 27.7023 29.1117 27.5721 29.0348 27.4437C28.9614 27.3214 28.8845 27.2043 28.8008 27.0864C28.4322 26.5745 27.9655 26.1219 27.407 25.7589C24.9841 24.1839 21.7348 24.873 20.1598 27.2959C19.9518 27.6158 19.7814 27.9526 19.6509 28.2968C19.6029 28.4222 19.5602 28.5511 19.5218 28.6791C19.4843 28.8114 19.4494 28.9453 19.4215 29.0801C18.9959 31.1349 19.8325 33.3312 21.6942 34.5414C22.5516 35.0988 23.5142 35.3739 24.4686 35.3862C24.4725 35.4261 24.4791 35.4677 24.4857 35.5092L24.5408 35.7801L24.6191 36.1704L25.0017 38.0492C25.0653 38.3703 25.2566 38.6327 25.5109 38.798C25.76 38.96 26.0705 39.0275 26.3846 38.9631C27.0199 38.8352 27.4308 38.2145 27.3011 37.5819L26.9174 35.6875ZM22.5473 33.2347C21.543 32.5818 20.9626 31.5181 20.8846 30.4043C20.8804 30.3419 20.8779 30.2769 20.8754 30.2118C20.8738 30.1511 20.8766 30.0895 20.8776 30.0306C20.8798 29.9984 20.8804 29.9689 20.8826 29.9368C20.89 29.8222 20.9016 29.7067 20.9202 29.592C20.9412 29.4564 20.9709 29.319 21.0074 29.1824C21.1056 28.8247 21.2587 28.4803 21.4717 28.1525C22.5763 26.4534 24.8564 25.9698 26.5556 27.0743C27.1351 27.451 27.5739 27.9638 27.8556 28.5461C27.9267 28.6893 27.9848 28.8352 28.0351 28.9873C28.0666 29.0824 28.0963 29.18 28.1191 29.2769C28.1337 29.3349 28.1465 29.3955 28.1594 29.456C28.1621 29.469 28.1658 29.4863 28.1685 29.4993C28.2148 29.7495 28.2325 30.0034 28.2276 30.2577C28.21 30.9102 28.0173 31.5682 27.6355 32.1556C26.5266 33.8556 24.2465 34.3392 22.5473 33.2347Z" fill="white"/>
</g>
</g>
<defs>
<clipPath id="clip0">
<rect width="30" height="30" fill="white" transform="translate(39.6465 118) rotate(38.4293)"/>
</clipPath>
<clipPath id="clip1">
<rect width="30" height="30" fill="white" transform="translate(263.968 19.9478) rotate(-39.247)"/>
</clipPath>
<clipPath id="clip2">
<rect width="30" height="30" fill="white" transform="translate(246 141.253) rotate(-39.9236)"/>
</clipPath>
<clipPath id="clip3">
<rect width="30" height="30" fill="white" transform="translate(194.14 75) rotate(69.7188)"/>
</clipPath>
<clipPath id="clip4">
<rect width="30" height="30" fill="white" transform="translate(124.14 21) rotate(69.7188)"/>
</clipPath>
<clipPath id="clip5">
<rect width="30" height="30" fill="white" transform="translate(16.3506) rotate(33.026)"/>
</clipPath>
</defs>
</svg>
