<svg width="16" height="16" viewBox="0 0 16 16" fill="none" xmlns="http://www.w3.org/2000/svg">
<path d="M8 0C3.58891 0 0 3.58891 0 8C0 12.4111 3.58891 16 8 16C12.4111 16 16 12.4111 16 8C16 3.58891 12.4111 0 8 0ZM8 15.2007C4.02936 15.2007 0.799347 11.9706 0.799347 8C0.799347 4.02936 4.02936 0.799348 8 0.799348C11.9706 0.799348 15.2007 4.02936 15.2007 8C15.2007 11.9706 11.9706 15.2007 8 15.2007Z" fill="#44A1FF"/>
<path d="M11.7586 7.71617L9.51065 5.46821C9.35404 5.3116 9.10282 5.3116 8.94621 5.46821C8.78961 5.62481 8.78961 5.87604 8.94621 6.03265L10.5123 7.59872H4.52533C4.30347 7.59872 4.12402 7.77816 4.12402 8.00002C4.12402 8.22188 4.30347 8.40133 4.52533 8.40133H10.509L8.94295 9.9674C8.78634 10.124 8.78634 10.3752 8.94295 10.5318C9.09956 10.6884 9.35078 10.6884 9.50739 10.5318L11.7553 8.28387C11.8337 8.20557 11.8728 8.10443 11.8728 8.00002C11.8728 7.89562 11.8369 7.79448 11.7586 7.71617Z" fill="#44A1FF"/>
</svg>
