<svg width="20" height="20" viewBox="0 0 20 20" fill="none" xmlns="http://www.w3.org/2000/svg">
<g clip-path="url(#clip0)">
<path d="M4.13317 15.966H17.7566C17.7983 15.966 17.8387 15.9601 17.8775 15.9508C17.8806 15.9508 17.8832 15.9513 17.8863 15.9513C18.1771 15.9513 18.4134 15.7153 18.4134 15.4243V0.527085C18.4134 0.236132 18.1771 0 17.8863 0H17.7576H4.97616H4.13391C2.73097 0 1.5898 1.14143 1.5898 2.54399C1.5898 2.5628 1.5935 2.58065 1.59533 2.59881C1.5935 3.89442 1.57743 15.7995 1.5935 17.3646C1.5925 17.3952 1.58875 17.425 1.58875 17.456C1.58875 18.8046 2.64475 19.9087 3.97302 19.9921C3.99967 19.9962 4.0258 20.0001 4.05345 20.0001H17.8862C18.1771 20.0001 18.4133 19.7641 18.4133 19.473V17.489C18.4133 17.1981 18.177 16.9619 17.8862 16.9619C17.5955 16.9619 17.3591 17.1981 17.3591 17.489V18.9459H4.13317C3.33221 18.9459 2.67837 18.31 2.64623 17.517C2.64702 17.5028 2.64959 17.4895 2.64932 17.4751C2.6488 17.4519 2.64802 17.4159 2.6475 17.368C2.69356 16.5875 3.34135 15.966 4.13317 15.966ZM4.49258 2.54399C4.49258 2.25303 4.72871 2.0169 5.01966 2.0169C5.31061 2.0169 5.54674 2.25303 5.54674 2.54399V13.2505C5.54674 13.5413 5.31061 13.7776 5.01966 13.7776C4.72871 13.7776 4.49258 13.5413 4.49258 13.2505V2.54399Z" fill="#CDCEDB"/>
</g>
<defs>
<clipPath id="clip0">
<rect width="20" height="20" fill="white"/>
</clipPath>
</defs>
</svg>
