<svg width="16" height="16" viewBox="0 0 16 16" fill="none" xmlns="http://www.w3.org/2000/svg">
<path d="M8.64508 7.49594L13.7541 2.38694C14.0715 2.06979 14.0715 1.55521 13.7541 1.23806C13.4367 0.920646 12.9226 0.920646 12.6052 1.23806L7.49621 6.34706L2.38694 1.23806C2.06952 0.920646 1.55548 0.920646 1.23806 1.23806C0.920646 1.55521 0.920646 2.06979 1.23806 2.38694L6.34733 7.49594L1.23806 12.6049C0.920646 12.9221 0.920646 13.4367 1.23806 13.7538C1.39677 13.9123 1.60477 13.9916 1.8125 13.9916C2.02023 13.9916 2.22823 13.9123 2.38694 13.7535L7.49621 8.64454L12.6052 13.7535C12.7639 13.9123 12.9719 13.9916 13.1796 13.9916C13.3874 13.9916 13.5954 13.9123 13.7541 13.7535C14.0715 13.4364 14.0715 12.9218 13.7541 12.6047L8.64508 7.49594Z" fill="white"/>
</svg>
