<svg width="28" height="28" viewBox="0 0 28 28" fill="none" xmlns="http://www.w3.org/2000/svg">
<g clip-path="url(#clip0)">
<circle cx="19" cy="9" r="3" fill="#44A1FF"/>
<path d="M15 27.5L21 22.5L15 23.5V27.5Z" fill="#44A1FF"/>
<path d="M7.53707 27.1797H2.09648C1.64646 27.1797 1.28027 26.8136 1.28027 26.3635V5.58984C1.28027 5.36333 1.09663 5.17969 0.870117 5.17969C0.643602 5.17969 0.459961 5.36333 0.459961 5.58984V26.3635C0.459961 27.2659 1.19409 28.0001 2.09648 28.0001H7.53707C7.76359 28.0001 7.94723 27.8164 7.94723 27.5899C7.94723 27.3634 7.76359 27.1797 7.53707 27.1797Z" fill="#73A7DB"/>
<path d="M5.19922 8.13876H11.3763C11.6029 8.13876 11.7865 7.95512 11.7865 7.72861C11.7865 7.50209 11.6029 7.31845 11.3763 7.31845H5.19922C4.9727 7.31845 4.78906 7.50209 4.78906 7.72861C4.78906 7.95512 4.9727 8.13876 5.19922 8.13876Z" fill="#73A7DB"/>
<path d="M5.19922 10.675H11.3763C11.6029 10.675 11.7865 10.4914 11.7865 10.2649C11.7865 10.0384 11.6029 9.85474 11.3763 9.85474H5.19922C4.9727 9.85474 4.78906 10.0384 4.78906 10.2649C4.78906 10.4914 4.9727 10.675 5.19922 10.675Z" fill="#73A7DB"/>
<path d="M5.19922 15.6723H15.0676C15.2941 15.6723 15.4777 15.4887 15.4777 15.2622C15.4777 15.0357 15.2941 14.852 15.0676 14.852H5.19922C4.9727 14.852 4.78906 15.0357 4.78906 15.2622C4.78906 15.4887 4.9727 15.6723 5.19922 15.6723Z" fill="#73A7DB"/>
<path d="M5.19922 18.2087H15.0676C15.2941 18.2087 15.4777 18.0251 15.4777 17.7985C15.4777 17.572 15.2941 17.3884 15.0676 17.3884H5.19922C4.9727 17.3884 4.78906 17.572 4.78906 17.7985C4.78906 18.0251 4.9727 18.2087 5.19922 18.2087Z" fill="#73A7DB"/>
<path d="M5.19922 20.745H15.0676C15.2941 20.745 15.4777 20.5614 15.4777 20.3349C15.4777 20.1084 15.2941 19.9247 15.0676 19.9247H5.19922C4.9727 19.9247 4.78906 20.1084 4.78906 20.3349C4.78906 20.5614 4.9727 20.745 5.19922 20.745Z" fill="#73A7DB"/>
<path d="M27.4251 23.491L23.3484 13.7483C25.3607 12.1711 26.1634 9.38405 25.1298 6.91387C24.5292 5.47848 23.4056 4.36297 21.9659 3.77273C21.7749 3.69441 21.5813 3.62688 21.3858 3.56956V1.63652C21.3858 0.734125 20.6517 0 19.7493 0H2.09648C1.19409 0 0.459961 0.734125 0.459961 1.63652V3.9492C0.459961 4.17572 0.643602 4.35936 0.870117 4.35936C1.09663 4.35936 1.28027 4.17572 1.28027 3.9492V1.63652C1.28027 1.18645 1.64641 0.820312 2.09648 0.820312H19.7493C20.1993 0.820312 20.5655 1.18645 20.5655 1.63652V3.39161C19.5392 3.24587 18.4888 3.37821 17.5076 3.7888C14.5445 5.02868 13.1426 8.44796 14.3824 11.411C14.983 12.8464 16.1067 13.9619 17.5463 14.5521C18.2596 14.8446 19.008 14.9908 19.7564 14.9907C20.0051 14.9907 20.2538 14.9743 20.5011 14.9419L20.5654 15.0956V21.4075C20.5654 21.4525 20.5632 21.4971 20.5595 21.5414H16.3174C15.3817 21.5414 14.6205 22.3025 14.6205 23.2383V27.1738C14.5762 27.1774 14.5316 27.1797 14.4866 27.1797H9.17759C8.95107 27.1797 8.76743 27.3633 8.76743 27.5898C8.76743 27.8164 8.95107 28 9.17759 28H14.4866C15.1317 28 15.7384 27.7498 16.1957 27.2952L20.6651 23.1322C20.6686 23.1288 20.6721 23.1255 20.6755 23.122C21.1335 22.6641 21.3857 22.0552 21.3857 21.4076V17.0561L24.5769 24.6828C24.8137 25.2485 25.3635 25.5897 25.9415 25.5897C26.1313 25.5897 26.3241 25.5529 26.5098 25.4752L26.6325 25.4238C27.384 25.1094 27.7395 24.2424 27.4251 23.491ZM15.6316 26.6997C15.6281 26.703 15.6246 26.7064 15.6212 26.7098C15.5644 26.7666 15.5042 26.8185 15.4409 26.8656V23.2383C15.4409 22.755 15.8341 22.3617 16.3175 22.3617H20.2511C20.2055 22.4231 20.1553 22.4818 20.1004 22.5371L15.6316 26.6997ZM17.8575 13.7931C16.6206 13.286 15.6552 12.3275 15.1392 11.0943C14.074 8.54853 15.2785 5.61072 17.8243 4.54546C18.4465 4.28509 19.1011 4.15483 19.7559 4.15483C20.1359 4.15483 20.5159 4.19989 20.8897 4.28761C20.8914 4.28794 20.893 4.28837 20.8946 4.2887C21.1516 4.3493 21.4058 4.42952 21.6548 4.53162C22.8917 5.03874 23.8571 5.99725 24.3731 7.23045C25.4384 9.77621 24.2339 12.714 21.6881 13.7793C20.4548 14.2954 19.0945 14.3002 17.8575 13.7931ZM26.3159 24.6671L26.1932 24.7184C25.8591 24.8583 25.4736 24.7002 25.3338 24.3661L21.319 14.7696C21.5277 14.7083 21.8011 14.6213 22.0046 14.5361C22.2306 14.4415 22.4473 14.3342 22.6546 14.2155L26.6683 23.8077C26.8081 24.1417 26.6501 24.5272 26.3159 24.6671Z" fill="#73A7DB"/>
<path d="M23.2576 7.69743C22.4499 5.76696 20.222 4.85368 18.2916 5.66136C16.3612 6.46915 15.4478 8.69685 16.2556 10.6273C16.8637 12.0807 18.2766 12.9575 19.7616 12.9575C20.2491 12.9575 20.7445 12.863 21.2216 12.6634C23.152 11.8557 24.0654 9.6279 23.2576 7.69743ZM20.9049 11.9067C19.3917 12.5398 17.6455 11.8239 17.0123 10.3107C16.3792 8.79753 17.0951 7.05135 18.6083 6.41818C18.9823 6.26167 19.3705 6.18762 19.7527 6.18762C20.9166 6.18762 22.0242 6.87499 22.5009 8.01413C23.1341 9.52728 22.4181 11.2735 20.9049 11.9067Z" fill="#73A7DB"/>
</g>
<defs>
<clipPath id="clip0">
<rect width="28" height="28" fill="white"/>
</clipPath>
</defs>
</svg>
