<svg width="20" height="20" viewBox="0 0 20 20" fill="none" xmlns="http://www.w3.org/2000/svg">
<path fill-rule="evenodd" clip-rule="evenodd" d="M0 9.58433C0.123398 4.18076 4.59551 -0.104607 10 0.00194468C15.4045 -0.104607 19.8766 4.18076 20 9.58437C19.8766 14.9879 15.4045 19.2733 10 19.1668C8.73312 19.1693 7.4766 18.9385 6.29332 18.486L3.97082 19.9367C3.90461 19.978 3.82809 20 3.75 20C3.51988 20 3.33332 19.8135 3.33332 19.5834V16.717C1.23219 14.9415 0.0141016 12.335 0 9.58433ZM4.72868 10.6977C5.54212 10.6977 6.20155 10.0382 6.20155 9.22481C6.20155 8.41136 5.54212 7.75194 4.72868 7.75194C3.91524 7.75194 3.25581 8.41136 3.25581 9.22481C3.25581 10.0382 3.91524 10.6977 4.72868 10.6977ZM11.5504 9.22481C11.5504 10.0382 10.891 10.6977 10.0775 10.6977C9.26408 10.6977 8.60465 10.0382 8.60465 9.22481C8.60465 8.41136 9.26408 7.75194 10.0775 7.75194C10.891 7.75194 11.5504 8.41136 11.5504 9.22481ZM15.4264 10.6977C16.2398 10.6977 16.8992 10.0382 16.8992 9.22481C16.8992 8.41136 16.2398 7.75194 15.4264 7.75194C14.6129 7.75194 13.9535 8.41136 13.9535 9.22481C13.9535 10.0382 14.6129 10.6977 15.4264 10.6977Z" fill="#CDCEDB"/>
</svg>
