<svg width="20" height="20" viewBox="0 0 20 20" fill="none" xmlns="http://www.w3.org/2000/svg">
<path fill-rule="evenodd" clip-rule="evenodd" d="M10 0C4.475 0 0 4.475 0 10C0 15.52 4.475 20 10 20C15.525 20 20 15.52 20 10C20 4.475 15.525 0 10 0ZM10 8.9C9.395 8.9 8.9 9.395 8.9 10C8.9 10.605 9.395 11.1 10 11.1C10.61 11.1 11.1 10.605 11.1 10C11.1 9.395 10.61 8.9 10 8.9ZM4 16L12.19 12.19L16 4L7.81 7.81L4 16Z" fill="#CDCEDB"/>
<mask id="mask0" mask-type="alpha" maskUnits="userSpaceOnUse" x="0" y="0" width="20" height="20">
<path fill-rule="evenodd" clip-rule="evenodd" d="M10 0C4.475 0 0 4.475 0 10C0 15.52 4.475 20 10 20C15.525 20 20 15.52 20 10C20 4.475 15.525 0 10 0ZM10 8.9C9.395 8.9 8.9 9.395 8.9 10C8.9 10.605 9.395 11.1 10 11.1C10.61 11.1 11.1 10.605 11.1 10C11.1 9.395 10.61 8.9 10 8.9ZM4 16L12.19 12.19L16 4L7.81 7.81L4 16Z" fill="white"/>
</mask>
<g mask="url(#mask0)">
</g>
</svg>
