<svg width="21" height="21" viewBox="0 0 21 21" fill="none" xmlns="http://www.w3.org/2000/svg">
<path d="M1.62494 4.51259H20.3735C20.7184 4.51259 20.9984 4.17655 20.9984 3.76259C20.9984 3.34856 20.7184 3.01259 20.3735 3.01259H1.62494C1.27995 3.01259 1 3.34862 1 3.76259C1 4.17655 1.28 4.51259 1.62494 4.51259Z" fill="white"/>
<path d="M20.3735 9.3759H1.62494C1.27995 9.3759 1 9.71194 1 10.1259C1 10.5399 1.28 10.8759 1.62494 10.8759H20.3735C20.7184 10.8759 20.9984 10.5399 20.9984 10.1259C20.9984 9.71194 20.7184 9.3759 20.3735 9.3759Z" fill="white"/>
<path d="M20.3735 15.7392H7.87445C7.52946 15.7392 7.24951 16.0753 7.24951 16.4892C7.24951 16.9033 7.52951 17.2392 7.87445 17.2392H20.3735C20.7184 17.2392 20.9984 16.9032 20.9984 16.4892C20.9984 16.0752 20.7184 15.7392 20.3735 15.7392Z" fill="white"/>
</svg>
