<svg width="17" height="20" viewBox="0 0 17 20" fill="none" xmlns="http://www.w3.org/2000/svg">
<path fill-rule="evenodd" clip-rule="evenodd" d="M14.359 8.71795V13.8462L16.4103 15.8974V16.9231H0V15.8974L2.05128 13.8462V8.71795C2.05128 5.5641 3.7282 2.93333 6.66667 2.2359V1.53846C6.66667 0.68718 7.35385 0 8.20513 0C9.05641 0 9.74359 0.68718 9.74359 1.53846V2.2359C12.6821 2.93333 14.359 5.5641 14.359 8.71795ZM10.2564 17.9487C10.2564 19.0821 9.33846 20 8.20513 20C7.07179 20 6.15385 19.0821 6.15385 17.9487H10.2564Z" fill="white"/>
<mask id="mask0" mask-type="alpha" maskUnits="userSpaceOnUse" x="0" y="0" width="17" height="20">
<path fill-rule="evenodd" clip-rule="evenodd" d="M14.359 8.71795V13.8462L16.4103 15.8974V16.9231H0V15.8974L2.05128 13.8462V8.71795C2.05128 5.5641 3.7282 2.93333 6.66667 2.2359V1.53846C6.66667 0.68718 7.35385 0 8.20513 0C9.05641 0 9.74359 0.68718 9.74359 1.53846V2.2359C12.6821 2.93333 14.359 5.5641 14.359 8.71795ZM10.2564 17.9487C10.2564 19.0821 9.33846 20 8.20513 20C7.07179 20 6.15385 19.0821 6.15385 17.9487H10.2564Z" fill="white"/>
</mask>
<g mask="url(#mask0)">
</g>
</svg>
