<svg width="30" height="30" viewBox="0 0 30 30" fill="none" xmlns="http://www.w3.org/2000/svg">
<g clip-path="url(#clip0)">
<path d="M27.1857 8.06892L24.4443 6.72409V29.4827L28.2719 10.3448C28.4788 9.41375 28.0133 8.48271 27.1857 8.06892Z" fill="#00A3FF"/>
<path d="M27.3926 5.53448L24.9098 4.2931C24.7547 3.05172 23.6685 2.06897 22.3754 2.06897H10.4271C10.1685 0.87931 9.13397 0 7.89259 0H5.82363C4.58225 0 3.49604 0.931034 3.28915 2.12069C2.09949 2.32759 1.16846 3.41379 1.16846 4.65517V27.4138C1.16846 28.8621 2.30639 30 3.75466 30H22.3754C23.7719 30 24.9616 28.9138 24.9616 27.5172L28.7891 8.37931C28.996 7.24138 28.4271 6.05172 27.3926 5.53448ZM5.82363 1.03448H7.89259C8.56501 1.03448 9.13397 1.44828 9.34087 2.06897H4.37535C4.58225 1.44828 5.15122 1.03448 5.82363 1.03448ZM23.9271 27.4138C23.9271 28.2931 23.2547 28.9655 22.3754 28.9655H16.6857V27.4138C16.6857 27.1034 16.4788 26.8966 16.1685 26.8966C15.8581 26.8966 15.6512 27.1034 15.6512 27.4138V28.9655H14.6167V25.3448C14.6167 25.0345 14.4098 24.8276 14.0995 24.8276C13.7891 24.8276 13.5822 25.0345 13.5822 25.3448V28.9655H12.5478V27.4138C12.5478 27.1034 12.3409 26.8966 12.0305 26.8966C11.7202 26.8966 11.5133 27.1034 11.5133 27.4138V28.9655H6.34087V27.4138C6.34087 27.1034 6.13397 26.8966 5.82363 26.8966C5.51328 26.8966 5.30639 27.1034 5.30639 27.4138V28.9655H3.75466C2.87535 28.9655 2.20294 28.2931 2.20294 27.4138V4.65517C2.20294 3.77586 2.87535 3.10345 3.75466 3.10345H9.44432V12.931C9.44432 13.8103 8.7719 14.4828 7.89259 14.4828C7.01328 14.4828 6.34087 13.8103 6.34087 12.931V4.65517C6.34087 4.34483 6.13397 4.13793 5.82363 4.13793C5.51328 4.13793 5.30639 4.34483 5.30639 4.65517V12.931C5.30639 14.3793 6.44432 15.5172 7.89259 15.5172C9.34087 15.5172 10.4788 14.3793 10.4788 12.931V3.10345H22.3754C23.2547 3.10345 23.9271 3.77586 23.9271 4.65517V27.4138ZM27.7547 8.17241L24.9616 22.1897V5.48276L26.9271 6.46552C27.5478 6.77586 27.9098 7.5 27.7547 8.17241Z" fill="#73A7DB"/>
<path d="M20.3062 6.20694H14.0993C13.7889 6.20694 13.582 6.41384 13.582 6.72418C13.582 7.03453 13.7889 7.24142 14.0993 7.24142H20.3062C20.6165 7.24142 20.8234 7.03453 20.8234 6.72418C20.8234 6.41384 20.6165 6.20694 20.3062 6.20694Z" fill="#73A7DB"/>
<path d="M20.3062 10.3449H14.0993C13.7889 10.3449 13.582 10.5518 13.582 10.8621C13.582 11.1725 13.7889 11.3794 14.0993 11.3794H20.3062C20.6165 11.3794 20.8234 11.1725 20.8234 10.8621C20.8234 10.5518 20.6165 10.3449 20.3062 10.3449Z" fill="#73A7DB"/>
<path d="M14.0993 15.5173H16.1682C16.4786 15.5173 16.6855 15.3104 16.6855 15.0001C16.6855 14.6897 16.4786 14.4828 16.1682 14.4828H14.0993C13.7889 14.4828 13.582 14.6897 13.582 15.0001C13.582 15.3104 13.7889 15.5173 14.0993 15.5173Z" fill="#73A7DB"/>
<path d="M20.3064 14.4828H18.2375C17.9271 14.4828 17.7202 14.6897 17.7202 15.0001C17.7202 15.3104 17.9271 15.5173 18.2375 15.5173H20.3064C20.6168 15.5173 20.8237 15.3104 20.8237 15.0001C20.8237 14.6897 20.6168 14.4828 20.3064 14.4828Z" fill="#73A7DB"/>
<path d="M12.0303 20.6896H5.82339C5.51305 20.6896 5.30615 20.8965 5.30615 21.2068C5.30615 21.5172 5.51305 21.7241 5.82339 21.7241H12.0303C12.3406 21.7241 12.5475 21.5172 12.5475 21.2068C12.5475 20.8965 12.3406 20.6896 12.0303 20.6896Z" fill="#73A7DB"/>
<path d="M20.3062 20.6896H14.0993C13.7889 20.6896 13.582 20.8965 13.582 21.2068C13.582 21.5172 13.7889 21.7241 14.0993 21.7241H20.3062C20.6165 21.7241 20.8234 21.5172 20.8234 21.2068C20.8234 20.8965 20.6165 20.6896 20.3062 20.6896Z" fill="#73A7DB"/>
<path d="M20.3062 12.4139H14.0993C13.7889 12.4139 13.582 12.6208 13.582 12.9311C13.582 13.2415 13.7889 13.4484 14.0993 13.4484H20.3062C20.6165 13.4484 20.8234 13.2415 20.8234 12.9311C20.8234 12.6208 20.6165 12.4139 20.3062 12.4139Z" fill="#73A7DB"/>
<path d="M16.6855 19.1379C16.6855 18.8275 16.4786 18.6206 16.1682 18.6206H5.82339C5.51305 18.6206 5.30615 18.8275 5.30615 19.1379C5.30615 19.4482 5.51305 19.6551 5.82339 19.6551H16.1682C16.4786 19.6551 16.6855 19.4482 16.6855 19.1379Z" fill="#73A7DB"/>
<path d="M20.3064 18.6206H18.2375C17.9271 18.6206 17.7202 18.8275 17.7202 19.1379C17.7202 19.4482 17.9271 19.6551 18.2375 19.6551H20.3064C20.6168 19.6551 20.8237 19.4482 20.8237 19.1379C20.8237 18.8275 20.6168 18.6206 20.3064 18.6206Z" fill="#73A7DB"/>
<path d="M14.0993 9.31039H16.1682C16.4786 9.31039 16.6855 9.1035 16.6855 8.79315C16.6855 8.48281 16.4786 8.27591 16.1682 8.27591H14.0993C13.7889 8.27591 13.582 8.48281 13.582 8.79315C13.582 9.1035 13.7889 9.31039 14.0993 9.31039Z" fill="#73A7DB"/>
<path d="M20.3064 8.27591H18.2375C17.9271 8.27591 17.7202 8.48281 17.7202 8.79315C17.7202 9.1035 17.9271 9.31039 18.2375 9.31039H20.3064C20.6168 9.31039 20.8237 9.1035 20.8237 8.79315C20.8237 8.48281 20.6168 8.27591 20.3064 8.27591Z" fill="#73A7DB"/>
<path d="M20.3062 16.5516H14.0993C13.7889 16.5516 13.582 16.7585 13.582 17.0689C13.582 17.3792 13.7889 17.5861 14.0993 17.5861H20.3062C20.6165 17.5861 20.8234 17.3792 20.8234 17.0689C20.8234 16.7585 20.6165 16.5516 20.3062 16.5516Z" fill="#73A7DB"/>
</g>
<defs>
<clipPath id="clip0">
<rect width="30" height="30" fill="white"/>
</clipPath>
</defs>
</svg>
