<svg width="20" height="20" viewBox="0 0 20 20" fill="none" xmlns="http://www.w3.org/2000/svg">
<path fill-rule="evenodd" clip-rule="evenodd" d="M8.13793 10.3478C10.4232 10.3478 12.2759 8.4791 12.2759 6.17391C12.2759 3.86872 10.4232 2 8.13793 2C5.85261 2 4 3.86872 4 6.17391C4 8.4791 5.85261 10.3478 8.13793 10.3478ZM14.0001 6C14.0001 6.77448 13.7525 7.49756 13.3238 8.11008C13.6928 8.26331 14.097 8.34783 14.5208 8.34783C16.2586 8.34783 17.6674 6.92682 17.6674 5.17391C17.6674 3.42101 16.2586 2 14.5208 2C13.6709 2 12.8997 2.3399 12.3335 2.89229C13.3503 3.62567 14.0001 4.74538 14.0001 6ZM8.5 12C3.80558 12 0 15.5817 0 20H17C17 15.5817 13.1944 12 8.5 12ZM12.392 10.4091C15.088 11.3582 17.1704 13.8691 17.8019 17H20C20 13.134 17.4536 10 14.3125 10C13.6385 10 12.9919 10.1443 12.392 10.4091Z" fill="white"/>
</svg>
