<svg width="16" height="16" viewBox="0 0 16 16" fill="none" xmlns="http://www.w3.org/2000/svg">
<g clip-path="url(#clip0)">
<path d="M15.6987 5.54113C15.6545 5.52194 14.5771 5.0552 8.19831 2.29096C8.07143 2.23596 7.92767 2.23596 7.80079 2.29096L0.300393 5.54113C-0.102066 5.71517 -0.0981909 6.28645 0.300393 6.45868C1.75747 7.08999 4.1395 8.12233 7.80079 9.70885C7.92692 9.76354 8.07068 9.7642 8.19831 9.70885C8.54598 9.55818 13.2833 7.50533 13.4998 7.41154V12.7362C13.4998 13.0056 13.7069 13.2372 13.976 13.2497C14.2631 13.2631 14.4999 13.0345 14.4999 12.7503V7.23019C14.4999 7.15162 14.4417 7.08527 14.3638 7.07524C13.4252 6.9543 8.9991 6.38302 7.93548 6.24585C7.62784 6.20741 7.43614 5.8959 7.51702 5.61863C7.58046 5.38447 7.80279 5.2353 8.02799 5.2508C8.05043 5.25211 15.1762 6.17166 15.1711 6.17101C15.3042 6.18813 15.4137 6.27339 15.4662 6.38899C15.503 6.4698 15.5965 6.50684 15.6769 6.46915C15.8115 6.40608 15.9282 6.32308 15.9812 6.13522C16.0495 5.8918 15.9261 5.63945 15.6987 5.54113Z" fill="#73A7DB"/>
<path d="M7.40318 10.6264L3.2179 8.8128C3.11471 8.76808 2.99951 8.84374 2.99951 8.95619V10.7502C2.99951 12.4324 5.19588 13.7503 7.99977 13.7503C10.8037 13.7503 13 12.4324 13 10.7502V8.95619C13 8.84374 12.8848 8.76811 12.7817 8.8128L8.59606 10.6264C8.21604 10.7916 7.78358 10.7915 7.40318 10.6264Z" fill="#73A7DB"/>
</g>
<defs>
<clipPath id="clip0">
<rect width="16" height="16" fill="white"/>
</clipPath>
</defs>
</svg>
