<svg width="20" height="20" viewBox="0 0 20 20" fill="none" xmlns="http://www.w3.org/2000/svg">
<g clip-path="url(#clip0)">
<path d="M7.45999 2.68484H9.33647C10.0537 2.68484 10.6521 3.19983 10.7835 3.87745H11.8364C11.6967 2.62229 10.6292 1.64235 9.33647 1.64235H7.45999C6.1673 1.64235 5.09979 2.62229 4.95801 3.87745H6.01092C6.14645 3.19983 6.74484 2.68484 7.45999 2.68484Z" fill="white"/>
<path d="M1.99328 14.6172H11.5967C11.5509 14.3753 11.5279 14.1272 11.5279 13.8728C11.5279 11.6607 13.3293 9.85924 15.5415 9.85924C15.9815 9.85924 16.4068 9.93013 16.8029 10.0615V6.69632C16.7133 6.88188 16.609 7.06536 16.4923 7.24675C16.0378 7.94314 15.3893 8.56446 14.5699 9.09407C13.2918 9.91972 11.6926 10.4597 9.95792 10.6599V10.8392V11.3229C9.95792 12.1131 9.31574 12.7553 8.52556 12.7553H8.2774C7.48719 12.7553 6.84502 12.1131 6.84502 11.3229V10.8392V10.6599C5.1124 10.4576 3.51113 9.91972 2.23303 9.09407C1.41155 8.56448 0.765204 7.94316 0.310677 7.24675C0.191833 7.06536 0.0896688 6.88397 1.45209e-05 6.69632L1.45209e-05 12.6218C-0.00415545 13.7248 0.890323 14.6172 1.99328 14.6172Z" fill="white"/>
<path d="M2.68335 8.39364C4.2033 9.37568 6.23408 9.91778 8.39829 9.91778C10.5625 9.91778 12.5933 9.37777 14.1133 8.39364C15.481 7.5096 16.2733 6.3712 16.3734 5.16191C16.0085 4.69905 15.4414 4.40089 14.8054 4.40089H11.8531H10.8106L5.98595 4.40089H4.94345H1.9932C1.35728 4.40089 0.790165 4.69905 0.425293 5.16191C0.523308 6.36912 1.3156 7.5096 2.68335 8.39364Z" fill="white"/>
<path d="M7.67702 11.3229C7.67702 11.6544 7.94596 11.9213 8.27541 11.9213H8.5235C8.85502 11.9213 9.12189 11.6523 9.12189 11.3229V10.8392H7.677V11.3229H7.67702Z" fill="white"/>
<path d="M16.8009 12.4176C16.4631 12.1236 16.0211 11.9464 15.5395 11.9464C14.4761 11.9464 13.6108 12.8116 13.6108 13.875C13.6108 14.1377 13.663 14.39 13.761 14.6193C13.7985 14.709 13.8444 14.7965 13.8944 14.8799C13.9507 14.9717 14.0153 15.0592 14.0862 15.1406C14.1175 15.176 14.1487 15.2094 14.1821 15.2427H14.7138C15.4498 15.2427 16.1107 14.9258 16.5673 14.4212C16.9343 14.0168 17.1699 13.4913 17.2095 12.9096C17.1657 12.8325 17.1157 12.7595 17.0615 12.6907C16.9843 12.5906 16.8968 12.4989 16.8009 12.4176Z" fill="white"/>
<path d="M18.8733 16.1081L18.6857 15.9183L18.5669 15.7974C18.5439 15.7744 18.521 15.7536 18.496 15.7327C18.8358 15.1948 19.0318 14.5568 19.0318 13.875C19.0318 12.6011 18.3459 11.4835 17.3221 10.8726C17.2366 10.8226 17.1512 10.7747 17.0615 10.7309C16.976 10.6892 16.8905 10.6516 16.8009 10.6162C16.4089 10.464 15.9836 10.3806 15.5395 10.3806C13.613 10.3806 12.0471 11.9464 12.0471 13.8729C12.0471 14.1273 12.0742 14.3775 12.1263 14.6173C12.1451 14.7048 12.168 14.7924 12.1931 14.8779C12.2202 14.9654 12.2494 15.053 12.2827 15.1385C12.7915 16.4416 14.0571 17.3653 15.5374 17.3653C16.2192 17.3653 16.8572 17.1693 17.3951 16.8294C17.4118 16.8503 17.4306 16.8711 17.4493 16.892L17.5786 17.0233L17.7642 17.2131L18.6607 18.1242C18.8129 18.2806 19.0151 18.3577 19.2174 18.3577C19.4155 18.3577 19.6135 18.2827 19.7657 18.1326C20.0743 17.8302 20.0785 17.334 19.7762 17.0275L18.8733 16.1081ZM15.5395 16.3249C14.7409 16.3249 14.03 15.9413 13.5817 15.347C13.5567 15.3137 13.5316 15.2782 13.5066 15.2428C13.4837 15.2094 13.4628 15.174 13.442 15.1406C13.4315 15.1219 13.4211 15.1052 13.4107 15.0864C13.3732 15.0197 13.3377 14.9509 13.3064 14.88C13.2689 14.7966 13.2356 14.7091 13.2064 14.6194C13.1313 14.3838 13.0917 14.1357 13.0917 13.8751C13.0917 12.524 14.1905 11.4252 15.5415 11.4252C16.0023 11.4252 16.4339 11.5524 16.803 11.7755C16.8947 11.8297 16.9802 11.8902 17.0636 11.9569C17.1157 11.9986 17.1678 12.0424 17.2158 12.0882C17.245 12.1153 17.2742 12.1445 17.3034 12.1737C17.3096 12.18 17.3179 12.1883 17.3242 12.1946C17.441 12.3176 17.5431 12.4531 17.6328 12.597C17.86 12.9681 17.9914 13.406 17.9914 13.873C17.9893 15.2261 16.8905 16.3249 15.5395 16.3249Z" fill="white"/>
</g>
<defs>
<clipPath id="clip0">
<rect width="20" height="20" fill="white"/>
</clipPath>
</defs>
</svg>
