<svg width="30" height="30" viewBox="0 0 30 30" fill="none" xmlns="http://www.w3.org/2000/svg">
<path d="M28.4743 10.678H26.8753C26.662 10.6801 26.4714 10.546 26.4013 10.3443C26.2436 9.87213 26.0527 9.41139 25.8303 8.96599C25.736 8.7735 25.7751 8.54233 25.928 8.39195L27.0619 7.25647C27.657 6.66069 27.657 5.69572 27.0619 5.09995L24.8998 2.94159C24.3041 2.34627 23.3389 2.34627 22.7433 2.94159L21.6099 4.07433C21.4598 4.22699 21.2288 4.26659 21.0363 4.17252C20.5909 3.9489 20.13 3.7571 19.6573 3.59848C19.4552 3.52913 19.3199 3.33824 19.3218 3.12447V1.5255C19.3218 0.682983 18.6388 0 17.7965 0H14.7455C13.903 0 13.22 0.682983 13.22 1.5255V3.12447C13.2223 3.33778 13.0879 3.52867 12.8865 3.59848C12.4141 3.7571 11.9536 3.94867 11.508 4.17206C11.3157 4.26682 11.0843 4.22745 10.9339 4.07455L9.79868 2.94044C9.20222 2.34695 8.2384 2.34695 7.64216 2.94044L5.48426 5.09857C4.88871 5.69412 4.88871 6.65977 5.48426 7.25533L7.15144 8.9257C7.35308 9.12117 7.67512 9.11613 7.87058 8.91426C8.06124 8.71765 8.06147 8.405 7.8715 8.2077L6.20318 6.53801C6.00474 6.33934 6.00474 6.01753 6.20318 5.81909L8.36108 3.66096C8.55975 3.46252 8.88155 3.46252 9.08022 3.66096L10.2162 4.79485C10.6758 5.25719 11.3798 5.37277 11.9632 5.08163C12.3661 4.87999 12.7824 4.70695 13.2095 4.56367C13.8259 4.35493 14.2397 3.77541 14.2372 3.12447V1.5255C14.2372 1.24466 14.4647 1.01692 14.7455 1.01692H17.7965C18.0771 1.01692 18.3048 1.24466 18.3048 1.5255V3.12447C18.3023 3.77518 18.7161 4.35448 19.3325 4.56299C19.7598 4.7065 20.1764 4.87976 20.5792 5.08163C21.1627 5.3714 21.866 5.25558 22.3258 4.79439L23.4618 3.66096C23.6605 3.46252 23.9823 3.46252 24.1809 3.66096L26.3388 5.81955C26.5368 6.01799 26.5368 6.33957 26.3388 6.53801L25.2049 7.67395C24.7431 8.13377 24.6275 8.83781 24.9182 9.42101C25.1198 9.82384 25.2928 10.2404 25.4363 10.6673C25.6449 11.2839 26.2244 11.6977 26.8753 11.6949H28.4743C28.7551 11.6949 28.9829 11.9227 28.9829 12.2035V15.2543C28.9829 15.5351 28.7551 15.7626 28.4743 15.7626H26.8753C26.2246 15.7601 25.6453 16.1739 25.4368 16.7903C25.2933 17.2176 25.12 17.6342 24.9182 18.037C24.6279 18.6205 24.7438 19.324 25.2054 19.7839L26.3393 20.9198C26.5377 21.1182 26.5377 21.44 26.3393 21.6387L24.1802 23.7966C23.9818 23.9948 23.6602 23.9948 23.4618 23.7966L21.7909 22.1294C21.5955 21.9276 21.2737 21.9225 21.072 22.118C20.8702 22.3135 20.8651 22.6353 21.0606 22.8369C21.0645 22.8413 21.0688 22.8454 21.0729 22.8493L22.7433 24.5167C23.3389 25.1118 24.3041 25.1118 24.8998 24.5167L27.0577 22.3592C27.6533 21.7635 27.6533 20.798 27.0577 20.2023L25.9255 19.0677C25.7728 18.9175 25.7334 18.6866 25.8273 18.4941C26.0509 18.0487 26.2427 17.5877 26.4013 17.1153C26.4704 16.913 26.6616 16.7777 26.8753 16.7796H28.4743C29.3168 16.7796 29.9998 16.0968 29.9998 15.2543V12.2033C29.9998 11.361 29.3168 10.678 28.4743 10.678Z" fill="#73A7DB"/>
<path d="M20.9452 9.05502C18.3623 6.47735 14.1801 6.47735 11.5972 9.05502C11.4022 9.25689 11.4079 9.5787 11.6098 9.77393C11.8069 9.96413 12.1193 9.96413 12.3164 9.77393C14.4859 7.57507 18.0272 7.55126 20.2261 9.72083C22.4249 11.8904 22.4487 15.4319 20.2792 17.6308C20.2615 17.6486 20.2439 17.6662 20.2261 17.6839C20.0242 17.8789 20.0187 18.2007 20.2137 18.4028C20.4089 18.6047 20.7307 18.6104 20.9326 18.4151C20.937 18.411 20.9411 18.4069 20.9452 18.4028C23.5227 15.8198 23.5227 11.6377 20.9452 9.05502Z" fill="#73A7DB"/>
<path fill-rule="evenodd" clip-rule="evenodd" d="M17.7459 18.3051H18.3051C18.8668 18.3051 19.322 18.7603 19.3222 19.322V21.3558C19.3222 21.9175 18.8668 22.3727 18.3051 22.3727H17.7459C17.3234 22.3725 16.9455 22.6346 16.7974 23.0301C16.7402 23.1828 16.6777 23.3327 16.61 23.4803C16.4337 23.8644 16.515 24.3178 16.8132 24.6172L17.211 25.0163C17.6072 25.4132 17.6072 26.0564 17.211 26.4532L15.7739 27.8902C15.377 28.2866 14.7341 28.2866 14.337 27.8902L13.9378 27.4926C13.6384 27.1941 13.1852 27.1131 12.8009 27.2891C12.6535 27.3564 12.5036 27.4189 12.351 27.4768C11.9564 27.6251 11.6952 28.0021 11.695 28.4235V28.9828C11.695 29.5445 11.2397 29.9998 10.6781 29.9998H9.66113V24.4066C9.8138 24.4054 9.96646 24.3958 10.1182 24.3777C10.1316 24.3761 10.1449 24.374 10.1583 24.3718C10.1678 24.3703 10.1773 24.3688 10.1869 24.3674C10.3356 24.348 10.4833 24.3203 10.6293 24.2846L10.6902 24.2688C11.0324 24.1802 11.3615 24.047 11.6691 23.8728C11.7252 23.842 11.7811 23.8068 11.8369 23.7717C11.8548 23.7604 11.8728 23.7491 11.8907 23.738L11.9568 23.6948C12.2562 23.5059 12.5373 23.2896 12.7964 23.0484C12.8682 22.9807 12.9309 22.9037 12.9829 22.8197C13.2614 22.3702 13.4674 21.8797 13.5931 21.3659C13.616 21.2771 13.6384 21.1885 13.6556 21.0974C13.6663 21.0374 13.675 20.9779 13.683 20.918C13.7014 20.7903 13.713 20.6612 13.7192 20.5305C13.7199 20.5149 13.721 20.4994 13.722 20.4838C13.7239 20.4555 13.7258 20.4272 13.7258 20.3993C13.7288 20.379 13.7288 20.3593 13.7288 20.3389C13.7281 20.1899 13.7192 20.0414 13.7025 19.8935C13.7006 19.8778 13.698 19.8624 13.6954 19.847C13.693 19.8329 13.6906 19.8188 13.6888 19.8045C13.6711 19.6692 13.6467 19.5348 13.6155 19.4023C13.6039 19.3538 13.5915 19.3062 13.5784 19.2583C13.5448 19.1352 13.5052 19.0148 13.4603 18.8963C13.4536 18.8797 13.4474 18.8625 13.4412 18.8451C13.4352 18.8283 13.4291 18.8114 13.4223 18.7946C13.3619 18.6475 13.293 18.504 13.2159 18.3648C13.2061 18.3476 13.1955 18.3308 13.185 18.314C13.1763 18.3002 13.1676 18.2864 13.1594 18.2723C13.0973 18.1627 13.0287 18.0608 12.9559 17.9592C12.9275 17.9201 12.8989 17.8814 12.8696 17.8439C12.7895 17.7411 12.7048 17.6427 12.6153 17.5484C12.6067 17.5391 12.5985 17.5297 12.5903 17.5203C12.579 17.5074 12.5678 17.4945 12.5558 17.4822C12.4448 17.3708 12.3278 17.2655 12.2049 17.1671C12.1861 17.1519 12.1666 17.1376 12.1471 17.1234C12.1339 17.1138 12.1208 17.1041 12.1079 17.0943C12.0113 17.0215 11.9097 16.9524 11.8078 16.8878C11.7852 16.8751 11.7628 16.8612 11.7403 16.8472C11.7222 16.836 11.7041 16.8248 11.6858 16.8141C11.5634 16.7432 11.4373 16.6788 11.3079 16.6214C11.3002 16.6179 11.2925 16.614 11.2848 16.61C11.2758 16.6053 11.2667 16.6006 11.2571 16.5965C11.109 16.5342 10.9575 16.4806 10.803 16.4362C10.7749 16.428 10.7463 16.4211 10.7177 16.4142C10.7024 16.4104 10.6871 16.4067 10.6719 16.4028C10.5524 16.3721 10.4313 16.3467 10.3077 16.3275C10.2954 16.3255 10.2831 16.3235 10.2707 16.3214C10.2358 16.3156 10.2006 16.3098 10.1649 16.3055C9.99782 16.2836 9.82959 16.2721 9.66113 16.271V10.6778H10.6781C11.2397 10.6778 11.695 11.1333 11.695 11.6949V12.2541C11.6947 12.6766 11.9568 13.0545 12.3526 13.2026C12.505 13.2598 12.6549 13.3223 12.8025 13.39C13.1868 13.5663 13.64 13.485 13.9394 13.1868L14.3386 12.789C14.7357 12.3928 15.3786 12.3928 15.7755 12.789L17.2124 14.2262C17.6088 14.623 17.6088 15.266 17.2124 15.6631L16.8148 16.0622C16.5164 16.3614 16.4351 16.8148 16.6114 17.1991C16.6786 17.3465 16.7411 17.4966 16.799 17.6491C16.9474 18.0437 17.3246 18.3048 17.7459 18.3051ZM9.33738 24.3881C9.43821 24.3975 9.53897 24.4068 9.64211 24.4068H9.6611V30H8.64418C8.0825 30 7.62726 29.5448 7.62726 28.9831V28.4237C7.62657 28.0023 7.36496 27.6254 6.97014 27.4775C6.8177 27.42 6.66779 27.3576 6.52016 27.2898C6.13586 27.1138 5.68268 27.1948 5.3833 27.4933L4.98413 27.8909C4.58702 28.2873 3.94409 28.2873 3.54721 27.8909L2.11029 26.4539C1.71387 26.0568 1.71387 25.4139 2.11029 25.017L2.5074 24.6158C2.80563 24.3164 2.88689 23.8632 2.71065 23.4789C2.64359 23.3313 2.5811 23.1814 2.52296 23.0287C2.37488 22.6344 1.99768 22.373 1.57631 22.373H1.01692C0.455246 22.373 0 21.9175 0 21.3558V19.322C0 18.7603 0.455246 18.3051 1.01692 18.3051H1.57631C1.99837 18.3055 2.37625 18.0441 2.52457 17.6491C2.58202 17.4966 2.6445 17.3467 2.71225 17.1991C2.88849 16.8148 2.80746 16.3616 2.50877 16.0622L2.11121 15.6631C1.71478 15.266 1.71478 14.623 2.11121 14.2262L3.54607 12.7881C3.94318 12.3919 4.58611 12.3919 4.98299 12.7881L5.38422 13.1852C5.68359 13.4837 6.13678 13.5647 6.52107 13.3887C6.6687 13.3216 6.81862 13.2589 6.97105 13.201C7.36565 13.0529 7.62703 12.6757 7.62703 12.2543V11.6949C7.62703 11.1333 8.0825 10.678 8.64418 10.678H9.6611V16.2712C9.31801 16.2719 8.97652 16.3145 8.64418 16.3982C7.21161 16.7688 6.09306 17.8873 5.7225 19.3199C5.15968 21.4961 6.46774 23.7167 8.64418 24.2796C8.80531 24.3201 8.96896 24.3512 9.13376 24.3732C9.16553 24.3773 9.19815 24.3788 9.23073 24.3804C9.25447 24.3816 9.27818 24.3827 9.30153 24.3848C9.31348 24.3859 9.32543 24.387 9.33738 24.3881Z" fill="#00A3FF"/>
</svg>
