<svg width="16" height="16" viewBox="0 0 16 16" fill="none" xmlns="http://www.w3.org/2000/svg">
<g clip-path="url(#clip0)">
<path d="M11.5582 8.76208L10.4913 9.82896L10.4913 9.82893L3.12192 2.45952L3.68828 1.89316L1.33987 0.000427246L0 1.3403L1.89273 3.68868L2.45913 3.12232L9.82853 10.4917L8.76165 11.5586L10.2832 13.0801L13.0797 10.2836L11.5582 8.76208Z" fill="#73A7DB"/>
<path d="M13.7428 10.9465L10.9463 13.743L12.6241 15.4208C12.9976 15.7943 13.4942 16 14.0224 16C14.5506 16 15.0471 15.7943 15.4206 15.4208C16.1916 14.6498 16.1916 13.3953 15.4206 12.6243L13.7428 10.9465Z" fill="#73A7DB"/>
<path d="M8.09779 10.0868L5.91347 7.90245L4.31427 9.50144C3.13961 9.13333 1.85777 9.44082 0.973725 10.3252C0.345929 10.953 0 11.7876 0 12.6757C0 13.5635 0.345929 14.3985 0.973725 15.0263C1.62183 15.6744 2.47306 15.9985 3.32429 15.9985C4.17552 15.9985 5.02706 15.6744 5.67486 15.0263C6.55921 14.1423 6.8667 12.8604 6.49858 11.6858L8.09779 10.0868ZM4.08521 13.4363C3.66491 13.8566 2.98367 13.8566 2.56368 13.4363C2.14338 13.0163 2.14338 12.3351 2.56368 11.9148C2.98367 11.4948 3.66491 11.4948 4.08521 11.9148C4.5052 12.3351 4.5052 13.0164 4.08521 13.4363Z" fill="#73A7DB"/>
<path d="M15.7819 2.00504L15.5207 1.33787L13.8435 3.01502L13.1663 2.83346L12.9848 2.15629L14.6619 0.479457L13.9948 0.217901C12.8251 -0.240212 11.4957 0.0372811 10.608 0.925071C9.79485 1.73818 9.4936 2.92221 9.8011 4.01437L7.90186 5.91382L10.0862 8.09814L11.9854 6.19869C12.2673 6.27806 12.5548 6.31681 12.8407 6.31681C13.6635 6.3165 14.4713 5.99525 15.0747 5.39183C15.9625 4.50407 16.24 3.17473 15.7819 2.00504Z" fill="#73A7DB"/>
</g>
<defs>
<clipPath id="clip0">
<rect width="16" height="16" fill="white"/>
</clipPath>
</defs>
</svg>
