<svg width="20" height="20" viewBox="0 0 20 20" fill="none" xmlns="http://www.w3.org/2000/svg">
<path fill-rule="evenodd" clip-rule="evenodd" d="M13.0111 12.2222H13.8889L19.4333 17.7778L17.7778 19.4333L12.2222 13.8889V13.0111L11.9222 12.7C10.6556 13.7889 9.01111 14.4444 7.22222 14.4444C3.23333 14.4444 0 11.2111 0 7.22222C0 3.23333 3.23333 0 7.22222 0C11.2111 0 14.4444 3.23333 14.4444 7.22222C14.4444 9.01111 13.7889 10.6556 12.7 11.9222L13.0111 12.2222ZM2.22222 7.22222C2.22222 9.98889 4.45556 12.2222 7.22222 12.2222C9.98889 12.2222 12.2222 9.98889 12.2222 7.22222C12.2222 4.45556 9.98889 2.22222 7.22222 2.22222C4.45556 2.22222 2.22222 4.45556 2.22222 7.22222Z" fill="white"/>
<mask id="mask0" mask-type="alpha" maskUnits="userSpaceOnUse" x="0" y="0" width="20" height="20">
<path fill-rule="evenodd" clip-rule="evenodd" d="M13.0111 12.2222H13.8889L19.4333 17.7778L17.7778 19.4333L12.2222 13.8889V13.0111L11.9222 12.7C10.6556 13.7889 9.01111 14.4444 7.22222 14.4444C3.23333 14.4444 0 11.2111 0 7.22222C0 3.23333 3.23333 0 7.22222 0C11.2111 0 14.4444 3.23333 14.4444 7.22222C14.4444 9.01111 13.7889 10.6556 12.7 11.9222L13.0111 12.2222ZM2.22222 7.22222C2.22222 9.98889 4.45556 12.2222 7.22222 12.2222C9.98889 12.2222 12.2222 9.98889 12.2222 7.22222C12.2222 4.45556 9.98889 2.22222 7.22222 2.22222C4.45556 2.22222 2.22222 4.45556 2.22222 7.22222Z" fill="white"/>
</mask>
<g mask="url(#mask0)">
</g>
</svg>
