<svg width="20" height="20" viewBox="0 0 20 20" fill="none" xmlns="http://www.w3.org/2000/svg">
<g clip-path="url(#clip0)">
<path d="M11.5251 14.4155C11.2231 13.8812 10.6566 13.5156 10.0003 13.5156C9.34407 13.5156 8.7775 13.8812 8.47559 14.4155C8.92399 14.5844 9.44477 14.6875 10.0003 14.6875C10.5559 14.6875 11.0767 14.5844 11.5251 14.4155Z" fill="white"/>
<path d="M10 11.1719C8.41215 11.1719 7.07031 11.977 7.07031 12.9297C7.07031 13.2452 7.22809 13.5407 7.48258 13.7999C7.99207 12.9333 8.9241 12.3438 10 12.3438C11.0759 12.3438 12.0079 12.9333 12.5174 13.7999C12.7719 13.5407 12.9297 13.2452 12.9297 12.9297C12.9297 11.977 11.5879 11.1719 10 11.1719Z" fill="white"/>
<path d="M8.27417 15.5886C8.42343 16.4075 9.13878 17.0313 10.0001 17.0313C10.8615 17.0313 11.5769 16.4075 11.7261 15.5886C11.2026 15.7587 10.6224 15.8594 10.0001 15.8594C9.37788 15.8594 8.79772 15.7587 8.27417 15.5886Z" fill="white"/>
<path d="M17.072 8.82812C15.9653 6.16867 13.3961 4.3791 10.524 4.17996C10.4007 3.65496 10.0954 3.18102 9.65379 2.85547C9.5016 2.74332 9.41406 2.57105 9.41406 2.38281C9.41406 2.05953 9.67672 1.79688 10 1.79688C10.3233 1.79688 10.5859 2.05953 10.5859 2.38281H11.7578C11.7578 1.41352 10.9693 0.625 10 0.625C9.0307 0.625 8.24219 1.41352 8.24219 2.38281C8.24219 2.93898 8.50996 3.46828 8.95801 3.79844C9.09914 3.9025 9.21105 4.0382 9.2893 4.19398C6.4948 4.45691 4.01066 6.22637 2.92797 8.82812C1.3132 8.82926 0 10.143 0 11.7578C0 13.3726 1.3132 14.6864 2.92797 14.6875C4.10215 17.509 6.91238 19.375 10 19.375C13.0876 19.375 15.8979 17.509 17.072 14.6875C18.6868 14.6864 20 13.3726 20 11.7578C20 10.143 18.6868 8.82926 17.072 8.82812ZM5.89844 8.24219H7.07031V9.41406H5.89844V8.24219ZM12.9036 15.0162C12.9113 15.1023 12.9297 15.1853 12.9297 15.2734C12.9297 16.8888 11.6154 18.2031 10 18.2031C8.38465 18.2031 7.07031 16.8888 7.07031 15.2734C7.07031 15.1853 7.08871 15.1023 7.09637 15.0162C6.35328 14.4887 5.89844 13.7543 5.89844 12.9297C5.89844 11.2869 7.70031 10 10 10C12.2997 10 14.1016 11.2869 14.1016 12.9297C14.1016 13.7543 13.6467 14.4887 12.9036 15.0162ZM14.1016 9.41406H12.9297V8.24219H14.1016V9.41406Z" fill="white"/>
</g>
<defs>
<clipPath id="clip0">
<rect width="20" height="20" fill="white"/>
</clipPath>
</defs>
</svg>
