<svg width="16" height="16" viewBox="0 0 16 16" fill="none" xmlns="http://www.w3.org/2000/svg">
<path fill-rule="evenodd" clip-rule="evenodd" d="M14.0751 1.89494C16.6017 4.42155 16.6017 8.53268 14.0751 11.0593C11.9317 13.2028 8.74374 13.5274 6.25448 12.0341C6.25448 12.0341 6.07452 11.9268 5.92275 12.0786L2.62356 15.3778C1.9655 16.0359 1.04532 16.1925 0.461758 15.6088L0.361282 15.5084C-0.222332 14.9248 -0.0655729 14.0046 0.592434 13.3466L3.89857 10.0405C4.04344 9.89561 3.93612 9.71575 3.93612 9.71575C2.44272 7.22634 2.7674 4.03843 4.91084 1.89494C7.4374 -0.631668 11.5486 -0.631668 14.0751 1.89494ZM6.10734 3.09144C4.24043 4.95835 4.24038 7.99599 6.10729 9.86289C7.9742 11.7297 11.0118 11.7297 12.8787 9.86289C14.7456 7.99599 14.7456 4.9583 12.8787 3.09144C11.0119 1.22454 7.9742 1.22459 6.10734 3.09144ZM9.82567 8.43267H9.20249C8.97618 8.43267 8.79092 8.61788 8.79092 8.84424V9.46732C8.79092 9.69363 8.97618 9.87889 9.20249 9.87889H9.82567C10.052 9.87889 10.2372 9.69363 10.2372 9.46732V8.84424C10.2372 8.61788 10.052 8.43267 9.82567 8.43267ZM9.47161 2.89723H9.5565C10.6636 2.89723 11.5643 3.79797 11.5643 4.90505C11.5643 5.70276 11.1038 6.22691 10.7338 6.64802L10.7336 6.64823C10.4477 6.97358 10.3306 7.18148 10.2725 7.41186C10.1701 7.81808 9.93288 7.94567 9.5139 7.94567C9.09502 7.94567 8.75537 7.83084 8.75537 7.41186C8.75537 6.60115 9.22024 6.07202 9.59395 5.64681C9.87495 5.32707 10.0471 5.1202 10.0471 4.90505C10.0471 4.63449 9.82711 4.41435 9.5565 4.41435H9.47161C9.2011 4.41435 8.98106 4.63449 8.98106 4.90505C8.98106 5.32398 8.64146 5.43887 8.22243 5.43887C7.80349 5.43887 7.46389 5.32398 7.46389 4.90505C7.46389 3.79791 8.36447 2.89723 9.47161 2.89723Z" fill="#73A7DB"/>
</svg>
