<svg width="21" height="21" viewBox="0 0 21 21" fill="none" xmlns="http://www.w3.org/2000/svg">
<path fill-rule="evenodd" clip-rule="evenodd" d="M14.0111 13.2222H14.8889L20.4333 18.7778L18.7778 20.4333L13.2222 14.8889V14.0111L12.9222 13.7C11.6556 14.7889 10.0111 15.4444 8.22222 15.4444C4.23333 15.4444 1 12.2111 1 8.22222C1 4.23333 4.23333 1 8.22222 1C12.2111 1 15.4444 4.23333 15.4444 8.22222C15.4444 10.0111 14.7889 11.6556 13.7 12.9222L14.0111 13.2222ZM3.22222 8.22222C3.22222 10.9889 5.45556 13.2222 8.22222 13.2222C10.9889 13.2222 13.2222 10.9889 13.2222 8.22222C13.2222 5.45556 10.9889 3.22222 8.22222 3.22222C5.45556 3.22222 3.22222 5.45556 3.22222 8.22222Z" fill="white"/>
<mask id="mask0" mask-type="alpha" maskUnits="userSpaceOnUse" x="1" y="1" width="20" height="20">
<path fill-rule="evenodd" clip-rule="evenodd" d="M14.0111 13.2222H14.8889L20.4333 18.7778L18.7778 20.4333L13.2222 14.8889V14.0111L12.9222 13.7C11.6556 14.7889 10.0111 15.4444 8.22222 15.4444C4.23333 15.4444 1 12.2111 1 8.22222C1 4.23333 4.23333 1 8.22222 1C12.2111 1 15.4444 4.23333 15.4444 8.22222C15.4444 10.0111 14.7889 11.6556 13.7 12.9222L14.0111 13.2222ZM3.22222 8.22222C3.22222 10.9889 5.45556 13.2222 8.22222 13.2222C10.9889 13.2222 13.2222 10.9889 13.2222 8.22222C13.2222 5.45556 10.9889 3.22222 8.22222 3.22222C5.45556 3.22222 3.22222 5.45556 3.22222 8.22222Z" fill="white"/>
</mask>
<g mask="url(#mask0)">
</g>
</svg>
