<svg width="16" height="16" viewBox="0 0 16 16" fill="none" xmlns="http://www.w3.org/2000/svg">
<g clip-path="url(#clip0)">
<path d="M16 9.32528V6.67475L14.0504 6.26069C13.9202 5.80537 13.7377 5.36666 13.5065 4.95336L14.594 3.28115L12.7194 1.40662L11.0472 2.49406C10.6342 2.26217 10.1952 2.07996 9.73934 1.95123L9.32528 0H6.67475L6.26069 1.94965C5.80537 2.07979 5.36666 2.26227 4.95336 2.49346L3.28115 1.40603L1.40662 3.28059L2.49406 4.9528C2.26286 5.3661 2.08039 5.80481 1.95024 6.26013L0 6.67475V9.32528L1.95123 9.73934C2.07956 10.1949 2.26131 10.6337 2.4927 11.0467L1.40527 12.7189L3.2798 14.5934L4.95201 13.506C5.36531 13.7372 5.80401 13.9196 6.25933 14.0498L6.67475 16H9.32528L9.73934 14.0488C10.1946 13.9194 10.6333 13.7378 11.0467 13.5073L12.7189 14.5948L14.5934 12.7202L13.506 11.048C13.737 10.6343 13.9191 10.1951 14.0488 9.73934L16 9.32528ZM8.00117 11.45C6.09582 11.4506 4.55069 9.90655 4.55003 8.00117C4.54937 6.09582 6.09344 4.55069 7.99883 4.55003C9.90418 4.54937 11.4493 6.09344 11.45 7.99883C11.4503 9.90404 9.90639 11.449 8.00117 11.45Z" fill="#73A7DB"/>
</g>
<defs>
<clipPath id="clip0">
<rect width="16" height="16" fill="white"/>
</clipPath>
</defs>
</svg>
