<svg width="20" height="20" viewBox="0 0 20 20" fill="none" xmlns="http://www.w3.org/2000/svg">
<g clip-path="url(#clip0)">
<path d="M12.4496 16.0005H7.45014C7.15017 16.0005 6.9502 16.2004 6.9502 16.5004V18.5002C6.9502 18.8001 7.15017 19.0001 7.45014 19.0001H7.85009L8.84998 20H10.9497L11.9496 19.0001H12.4496C12.7495 19.0001 12.9495 18.8001 12.9495 18.5002V16.5004C12.9495 16.2004 12.7495 16.0005 12.4496 16.0005Z" fill="white"/>
<path d="M10.1501 0.00227587C6.15056 -0.0977128 2.95093 3.10192 2.95093 7.00148C2.95093 9.30122 4.0508 11.401 5.8506 12.6009C6.25055 13.0008 6.55052 13.5007 6.7505 14.0007H13.1498C13.3497 13.5007 13.6497 13.0008 14.1497 12.6009C15.9495 11.301 17.0493 9.20123 17.0493 6.70152C16.8494 3.10192 13.7497 0.102265 10.1501 0.00227587ZM14.6496 5.70163L9.65017 10.7011C9.45019 10.901 9.25021 11.001 8.95025 11.001C8.75027 11.001 8.4503 10.901 8.25033 10.7011L6.25055 8.70129C5.8506 8.30134 5.8506 7.7014 6.15056 7.30145C6.45053 6.90149 7.15045 6.90149 7.55041 7.20146L8.95025 8.6013L13.2498 4.30179C13.6497 3.90183 14.2496 3.90183 14.6496 4.30179C15.0496 4.70174 15.0496 5.30168 14.6496 5.70163Z" fill="white"/>
</g>
<defs>
<clipPath id="clip0">
<rect width="20" height="20" fill="white"/>
</clipPath>
</defs>
</svg>
