<svg width="20" height="20" viewBox="0 0 20 20" fill="none" xmlns="http://www.w3.org/2000/svg">
<g clip-path="url(#clip0)">
<path d="M5.89844 18.7891C8.88285 18.7891 11.3187 16.5496 11.6838 13.6643C9.03168 12.6885 7.12641 10.164 7.07633 7.18906C6.69582 7.11137 6.30191 7.07031 5.89844 7.07031C2.66242 7.07031 0 9.69367 0 12.9297C0 16.1657 2.66242 18.7891 5.89844 18.7891ZM7.65625 10.5859C7.97984 10.5859 8.24219 10.8483 8.24219 11.1719C8.24219 11.4955 7.97984 11.7578 7.65625 11.7578C7.33266 11.7578 7.07031 11.4955 7.07031 11.1719C7.07031 10.8483 7.33266 10.5859 7.65625 10.5859ZM4.14062 10.5859C4.46422 10.5859 4.72656 10.8483 4.72656 11.1719C4.72656 11.4955 4.46422 11.7578 4.14062 11.7578C3.81703 11.7578 3.55469 11.4955 3.55469 11.1719C3.55469 10.8483 3.81703 10.5859 4.14062 10.5859ZM3.08836 14.335C3.75039 13.455 4.80094 12.9297 5.89844 12.9297C6.99594 12.9297 8.04648 13.455 8.70852 14.335C8.90305 14.5937 8.85156 14.961 8.59293 15.1556C8.33207 15.3516 7.96551 15.2965 7.77238 15.04C6.87516 13.8475 4.92164 13.8475 4.02445 15.04C3.82992 15.298 3.46371 15.3513 3.20391 15.1556C2.94527 14.961 2.89379 14.5937 3.08836 14.335Z" fill="white"/>
<path d="M14.1016 1.21094C10.8709 1.21094 8.24219 3.83965 8.24219 7.07031C8.24219 10.301 10.8709 12.9297 14.1016 12.9297C17.3322 12.9297 20 10.301 20 7.07031C20 3.83965 17.3322 1.21094 14.1016 1.21094ZM15.8594 4.72656C16.183 4.72656 16.4453 4.98891 16.4453 5.3125C16.4453 5.63609 16.183 5.89844 15.8594 5.89844C15.5358 5.89844 15.2734 5.63609 15.2734 5.3125C15.2734 4.98891 15.5358 4.72656 15.8594 4.72656ZM12.3438 4.72656C12.6673 4.72656 12.9297 4.98891 12.9297 5.3125C12.9297 5.63609 12.6673 5.89844 12.3438 5.89844C12.0202 5.89844 11.7578 5.63609 11.7578 5.3125C11.7578 4.98891 12.0202 4.72656 12.3438 4.72656ZM16.9116 8.00871C16.2496 8.88879 15.1991 9.41406 14.1016 9.41406C13.0041 9.41406 11.9535 8.88879 11.2915 8.00871C11.097 7.75008 11.1484 7.38273 11.4071 7.18816C11.668 6.99363 12.0348 7.04625 12.2276 7.30375C13.1248 8.49621 15.0784 8.49621 15.9755 7.30375C16.1695 7.04512 16.5369 6.99305 16.7961 7.18816C17.0547 7.38273 17.1062 7.75008 16.9116 8.00871Z" fill="white"/>
</g>
<defs>
<clipPath id="clip0">
<rect width="20" height="20" fill="white"/>
</clipPath>
</defs>
</svg>
