<svg width="20" height="20" viewBox="0 0 20 20" fill="none" xmlns="http://www.w3.org/2000/svg">
<path fill-rule="evenodd" clip-rule="evenodd" d="M8.40942 1.25C12.3572 1.25 15.5688 4.46164 15.5688 8.40942C15.5688 12.3572 12.3572 15.5688 8.40942 15.5688C7.12282 15.5688 5.87012 15.2264 4.77035 14.5761L1.27632 15.5424L2.24277 12.0485C1.59246 10.9487 1.25 9.69603 1.25 8.40942C1.25 4.46164 4.46164 1.25 8.40942 1.25ZM6.21216 6.74316H7.31079C7.31079 6.13734 7.8036 5.64453 8.40942 5.64453C9.01525 5.64453 9.50806 6.13734 9.50806 6.74316C9.50806 7.05516 9.38103 7.34312 9.15043 7.55412L7.86011 8.73515V10.0757H8.95874V9.21895L9.89215 8.36465C10.3463 7.94923 10.6067 7.35814 10.6067 6.74316C10.6067 5.53152 9.62107 4.5459 8.40942 4.5459C7.19778 4.5459 6.21216 5.53152 6.21216 6.74316ZM8.95874 11.1743V12.2729H7.86011V11.1743H8.95874ZM16.6661 8.52587C18.6652 9.53595 20 11.6125 20 13.9392C20 15.0301 19.7095 16.091 19.1575 17.0231L19.9736 19.9735L17.0231 19.1574C16.091 19.7095 15.0301 20 13.9392 20C11.6125 20 9.53598 18.6652 8.52589 16.666C12.9871 16.604 16.604 12.9871 16.6661 8.52587Z" fill="white"/>
</svg>
